<svg xmlns="http://www.w3.org/2000/svg" viewBox="0 0 614.48 333.89"><path d="M802.1,473.38c-3.48-5.33-8.43-10.1-14.82-14.68a181.86,181.86,0,0,0-21.17-12.63c-3.46-1.83-7-3.62-10.51-5.41q-6.3-3.2-12.64-6.35L610.6,368.13q-6.33-3.17-12.69-6.32c-3.59-1.77-7.18-3.53-10.83-5.26A253.83,253.83,0,0,0,561.82,346a173.08,173.08,0,0,0-29.36-7.4,206.28,206.28,0,0,0-64.92,0A172.84,172.84,0,0,0,438.2,346a250.71,250.71,0,0,0-25.27,10.59c-3.66,1.73-7.25,3.49-10.84,5.26q-6.36,3.15-12.69,6.32l-93.59,46.79L257,434.31q-6.33,3.17-12.64,6.34c-3.53,1.8-7.05,3.6-10.51,5.42q-2.83,1.49-5.6,3a151.94,151.94,0,0,0-15.58,9.62,63.39,63.39,0,0,0-11.92,10.77,41.6,41.6,0,0,0-2.88,3.9,30.88,30.88,0,0,0-4.82,12.1,26.13,26.13,0,0,0-.33,4.13v20.78a29.6,29.6,0,0,0,5.15,16.23c3.47,5.33,8.42,10.09,14.81,14.68a182.7,182.7,0,0,0,21.17,12.63c3.46,1.83,7,3.62,10.51,5.42,4.19,2.12,8.42,4.23,12.64,6.34l57.64,28.82,74.72,37.36c4.23,2.11,8.45,4.22,12.7,6.32q5.37,2.65,10.82,5.26A252.46,252.46,0,0,0,438.18,654a172.37,172.37,0,0,0,29.36,7.41,206.34,206.34,0,0,0,64.93,0,172.84,172.84,0,0,0,29.34-7.4,251.68,251.68,0,0,0,25.27-10.59c3.64-1.73,7.24-3.49,10.83-5.26,4.24-2.09,8.47-4.21,12.69-6.32L743,565.69c4.22-2.11,8.45-4.22,12.64-6.35,3.53-1.79,7-3.59,10.51-5.41a182,182,0,0,0,21.18-12.64c6.38-4.58,11.33-9.34,14.81-14.67.38-.58.73-1.17,1.06-1.75.08-.15.17-.29.24-.43.33-.59.64-1.17.92-1.76l.06-.13c.27-.56.51-1.12.74-1.68,0-.14.11-.28.17-.43.23-.59.44-1.18.63-1.78a1.87,1.87,0,0,0,.07-.22c.17-.54.32-1.08.45-1.63,0-.14.07-.28.1-.42a3,3,0,0,0,.08-.32c.11-.5.2-1,.28-1.5,0-.08,0-.17,0-.25.08-.53.14-1.07.19-1.6,0-.17,0-.33,0-.49,0-.61.07-1.23.07-1.84V489.61A29.58,29.58,0,0,0,802.1,473.38Zm3.82,24.5h0" transform="translate(-192.76 -335.99)" style="fill:#1a1a1c"/><path d="M807.16,491.44c0,.17,0,.33,0,.49,0,.54-.1,1.07-.18,1.61a1.87,1.87,0,0,0,0,.25c-.08.49-.18,1-.29,1.48,0,.11,0,.22-.07.34s-.07.28-.1.42c-.12.48-.26,1-.4,1.46,0,.05,0,.11,0,.16a2,2,0,0,1-.07.23h0c-.09.28-.2.56-.3.84s-.21.63-.33.94c-.06.14-.12.28-.17.43h0c-.23.56-.47,1.12-.74,1.67h0l-.06.13h0c-.28.59-.59,1.18-.92,1.76h0l-.24.43c-.33.59-.68,1.17-1.06,1.76-3.48,5.32-8.43,10.09-14.81,14.67a183.45,183.45,0,0,1-21.18,12.64c-3.46,1.82-7,3.62-10.52,5.41-4.18,2.12-8.41,4.23-12.63,6.35L610.6,611.09q-6.33,3.17-12.69,6.31c-3.59,1.77-7.19,3.53-10.83,5.26a251.68,251.68,0,0,1-25.27,10.59,172.83,172.83,0,0,1-29.34,7.41,206.34,206.34,0,0,1-64.93,0,173.31,173.31,0,0,1-29.36-7.41,252.47,252.47,0,0,1-25.26-10.59q-5.46-2.6-10.82-5.25c-4.25-2.1-8.47-4.21-12.7-6.32l-74.72-37.37L257,544.91c-4.22-2.12-8.45-4.23-12.64-6.35-3.53-1.79-7.05-3.59-10.51-5.42a182.67,182.67,0,0,1-21.17-12.62c-6.39-4.59-11.34-9.35-14.81-14.68a29.63,29.63,0,0,1-5.15-16.24v20.79a29.6,29.6,0,0,0,5.15,16.23c3.47,5.33,8.42,10.09,14.81,14.68a182.7,182.7,0,0,0,21.17,12.63c3.46,1.83,7,3.62,10.51,5.42,4.19,2.12,8.42,4.23,12.64,6.34l57.64,28.82,74.72,37.36c4.23,2.11,8.45,4.22,12.7,6.32q5.36,2.65,10.82,5.26A252.46,252.46,0,0,0,438.18,654a173.31,173.31,0,0,0,29.36,7.41,206.34,206.34,0,0,0,64.93,0,172.84,172.84,0,0,0,29.34-7.4,251.68,251.68,0,0,0,25.27-10.59c3.64-1.73,7.24-3.49,10.83-5.26,4.24-2.09,8.47-4.21,12.69-6.32L743,565.69c4.22-2.11,8.45-4.22,12.63-6.35,3.54-1.79,7.06-3.59,10.52-5.41a182,182,0,0,0,21.18-12.64c6.38-4.58,11.33-9.34,14.81-14.67.38-.58.73-1.17,1.06-1.75l.24-.43c.33-.59.64-1.17.92-1.76l.06-.13c.27-.56.51-1.12.74-1.68,0-.14.11-.28.17-.43.23-.59.44-1.18.63-1.78a1.87,1.87,0,0,0,.07-.22c.17-.54.32-1.08.45-1.63,0-.14.07-.28.1-.42a3,3,0,0,0,.08-.32c.11-.5.2-1,.28-1.5a2.17,2.17,0,0,1,0-.25c.08-.53.14-1.07.18-1.61,0-.16,0-.32,0-.48.05-.61.08-1.23.08-1.84V489.6C807.24,490.22,807.21,490.83,807.16,491.44Z" transform="translate(-192.76 -335.99)" style="fill:#0e0e0f"/><path d="M651.05,483.22a28.57,28.57,0,0,0-7.41-7.34,91.41,91.41,0,0,0-10.59-6.31q-2.59-1.36-5.25-2.71l-6.32-3.17L555.3,430.6,549,427.44c-1.79-.89-3.59-1.76-5.41-2.63a126.42,126.42,0,0,0-12.63-5.29,86.06,86.06,0,0,0-14.68-3.71,103.54,103.54,0,0,0-32.46,0,86.65,86.65,0,0,0-14.67,3.7,126.62,126.62,0,0,0-12.64,5.3c-1.82.87-3.62,1.74-5.42,2.63l-6.34,3.16L397.91,454l-19.39,9.69-6.32,3.17q-2.65,1.35-5.25,2.71c-.95.5-1.88,1-2.81,1.51a74.78,74.78,0,0,0-7.79,4.81,31.79,31.79,0,0,0-6,5.38,21.23,21.23,0,0,0-1.44,2,15.66,15.66,0,0,0-2.42,6.06,14.18,14.18,0,0,0-.16,2.06v17.32a14.8,14.8,0,0,0,2.57,8.11,28.06,28.06,0,0,0,7.4,7.34,92.45,92.45,0,0,0,10.6,6.32q2.6,1.37,5.25,2.7c2.09,1.07,4.21,2.12,6.32,3.18l28.82,14.41L444.7,569.4l6.34,3.16c1.8.88,3.6,1.76,5.42,2.63a127.41,127.41,0,0,0,12.63,5.29,86.07,86.07,0,0,0,14.68,3.7,102.74,102.74,0,0,0,32.46,0,85.71,85.71,0,0,0,14.67-3.7,126.61,126.61,0,0,0,12.64-5.29q2.73-1.31,5.41-2.63l6.35-3.16,66.18-33.09c2.11-1.06,4.23-2.11,6.31-3.18,1.78-.89,3.53-1.79,5.27-2.7a92.14,92.14,0,0,0,10.58-6.32,28.23,28.23,0,0,0,7.41-7.33q.38-.59.69-1.17c.07-.12.13-.24.19-.36.15-.29.29-.57.41-.86.06-.12.12-.25.17-.38.14-.33.26-.67.38-1l.07-.19c.12-.4.23-.8.32-1.2l0-.1,0-.22c.07-.33.12-.66.16-1,0-.12,0-.24,0-.37,0-.42.07-.85.07-1.27V491.34A14.84,14.84,0,0,0,651.05,483.22Zm1.29,13.85h0l0-.1Zm1.21-4.46,0,.24,0-.24Z" transform="translate(-192.76 -335.99)" style="fill:#e3e3e7"/><path d="M653.55,497h0l0,.24s0,.08,0,.12c0,.34-.09.67-.16,1l0,.15,0,.16c-.09.41-.2.81-.32,1.21l-.06.16v0c-.12.34-.24.67-.38,1l-.12.27,0,.11h0c-.12.28-.26.57-.41.85-.06.12-.12.24-.19.36q-.32.58-.69,1.17a28.26,28.26,0,0,1-7.41,7.34,90.7,90.7,0,0,1-10.58,6.31q-2.61,1.38-5.26,2.71c-2.09,1.07-4.21,2.12-6.32,3.18L555.3,556.41,549,559.57c-1.8.89-3.6,1.77-5.42,2.63a124.31,124.31,0,0,1-12.64,5.3,86.65,86.65,0,0,1-14.67,3.7,103.54,103.54,0,0,1-32.46,0,87,87,0,0,1-14.68-3.7,125.08,125.08,0,0,1-12.63-5.3c-1.82-.86-3.62-1.74-5.42-2.62l-6.34-3.17-37.36-18.68-28.82-14.4c-2.11-1.06-4.23-2.11-6.32-3.18q-2.65-1.33-5.25-2.71a90,90,0,0,1-10.59-6.31,28.26,28.26,0,0,1-7.41-7.34,14.84,14.84,0,0,1-2.57-8.12V513a14.84,14.84,0,0,0,2.57,8.12,28.26,28.26,0,0,0,7.41,7.34A90,90,0,0,0,367,534.76q2.6,1.38,5.25,2.71c2.09,1.07,4.21,2.12,6.32,3.18l28.82,14.41,37.36,18.67L451,576.9c1.8.88,3.6,1.76,5.42,2.62a125.08,125.08,0,0,0,12.63,5.3,87,87,0,0,0,14.68,3.7,103.54,103.54,0,0,0,32.46,0,86.65,86.65,0,0,0,14.67-3.7,124.31,124.31,0,0,0,12.64-5.3c1.82-.86,3.62-1.74,5.42-2.63,2.12-1,4.23-2.1,6.34-3.16l66.18-33.08c2.11-1.06,4.23-2.11,6.32-3.18q2.66-1.34,5.26-2.71a90.7,90.7,0,0,0,10.58-6.31,28.26,28.26,0,0,0,7.41-7.34q.38-.58.69-1.17l.19-.35c.15-.29.29-.58.41-.86s.12-.25.17-.38c.14-.34.26-.67.38-1,0-.07.05-.13.07-.19.12-.4.23-.8.32-1.21l0-.09,0-.22c.07-.33.12-.66.16-1,0-.12,0-.24,0-.36,0-.42.07-.85.07-1.28V495.67C653.62,496.1,653.59,496.52,653.55,497Z" transform="translate(-192.76 -335.99)"/><path d="M653.55,492.61h0l0,.24s0,.08,0,.13c0,.33-.09.66-.16,1l0,.15,0,.17c-.09.4-.2.8-.32,1.2l-.06.16v0c-.12.34-.24.68-.38,1l-.12.28,0,.1h0c-.12.29-.26.57-.41.86-.06.12-.12.24-.19.36q-.32.58-.69,1.17a28.23,28.23,0,0,1-7.41,7.33,92.14,92.14,0,0,1-10.58,6.32q-2.61,1.36-5.26,2.7c-2.09,1.07-4.21,2.12-6.32,3.18L555.3,552.08,549,555.24c-1.8.88-3.6,1.76-5.42,2.63a126.61,126.61,0,0,1-12.64,5.29,84.8,84.8,0,0,1-14.67,3.7,102.74,102.74,0,0,1-32.46,0,85.14,85.14,0,0,1-14.68-3.7,127.41,127.41,0,0,1-12.63-5.29c-1.82-.87-3.62-1.75-5.42-2.63l-6.34-3.16L407.34,533.4,378.52,519c-2.11-1.06-4.23-2.11-6.32-3.18q-2.65-1.34-5.25-2.7a91.44,91.44,0,0,1-10.59-6.32,28.11,28.11,0,0,1-7.41-7.34,14.8,14.8,0,0,1-2.57-8.11v17.32a14.8,14.8,0,0,0,2.57,8.11,28.11,28.11,0,0,0,7.41,7.34A91.44,91.44,0,0,0,367,530.43q2.6,1.37,5.25,2.7c2.09,1.07,4.21,2.12,6.32,3.18l28.82,14.41L444.7,569.4l6.34,3.16c1.8.88,3.6,1.76,5.42,2.63a127.41,127.41,0,0,0,12.63,5.29,85.14,85.14,0,0,0,14.68,3.7,102.74,102.74,0,0,0,32.46,0,84.8,84.8,0,0,0,14.67-3.7,126.61,126.61,0,0,0,12.64-5.29c1.82-.87,3.62-1.75,5.42-2.63l6.34-3.16,66.18-33.09c2.11-1.06,4.23-2.11,6.32-3.18q2.66-1.33,5.26-2.7a92.14,92.14,0,0,0,10.58-6.32,28.23,28.23,0,0,0,7.41-7.33q.38-.59.69-1.17c.07-.12.13-.24.19-.36.15-.29.29-.57.41-.86.06-.12.12-.25.17-.38.14-.33.26-.67.38-1,0-.06.05-.12.07-.19.12-.4.23-.8.32-1.2l0-.1,0-.22c.07-.33.12-.66.16-1,0-.12,0-.24,0-.37,0-.42.07-.85.07-1.27V491.34C653.62,491.76,653.59,492.19,653.55,492.61Z" transform="translate(-192.76 -335.99)" style="fill:#79797c"/><path d="M482.49,459.9c30.41,0,59.07,6.57,72.77,18,.41.34.78.68,1.16,1,26.13,1.35,38.89,10.37,35.69,10.37a56.32,56.32,0,0,0-8.62-.73c-13.13,0-19.65,5.91-22.07,9.73-.21.4-.43.8-.67,1.19-5.93,9.68-22.17,18.3-46.24,23.1a199.65,199.65,0,0,1-38.59,3.67,202.93,202.93,0,0,1-23.16-1.3,191.79,191.79,0,0,0,19.74-2.5c26.13-4.73,43.39-14,48.29-24.15-11.18.73-22.5,1-33.63,1-20.55,0-40.42-1-57.37-2-4.84-.2-9.58-.56-14.1-1.12,26.42-.59,64.06-3.56,76.27-5.27-34.13-.47-70.35-3.95-69-3.95h1.67c51.62,0,87.9-4.29,89.81-4.51,1.41-.21,2.48-.35,3.37-.44a27,27,0,0,0-2.62-2.62c-11.08-9.72-33.22-16.09-58.25-18A207.87,207.87,0,0,1,482.49,459.9Z" transform="translate(-192.76 -335.99)" style="fill:#1a1a1c"/><polygon points="27.31 225.35 55.05 239.22 49.07 242.22 38.35 236.86 6.25 252.91 0 249.78 32.1 233.73 21.32 228.35 27.31 225.35"/><path d="M249.82,586.4c4,2,6.05,4.37,6.05,7.15s-2,5.17-6,7.18a31.79,31.79,0,0,1-14.36,3,31.47,31.47,0,0,1-14.31-3c-4-2-6-4.38-6-7.15s2-5.17,6-7.18a35.56,35.56,0,0,1,28.66,0ZM244,597.79c2.46-1.22,3.7-2.67,3.7-4.3s-1.19-3-3.58-4.24a18.74,18.74,0,0,0-8.49-1.79,19.14,19.14,0,0,0-8.6,1.84c-2.44,1.23-3.69,2.67-3.69,4.3s1.19,3,3.58,4.25a18.88,18.88,0,0,0,8.49,1.79,19.07,19.07,0,0,0,8.59-1.85" transform="translate(-192.76 -335.99)"/><path d="M335.35,624l7.61,2.07-7.61,3.8,6.75,3.38-5.66,2.82-6.75-3.37-13.05,6.53c-3.49,1.74-1.14,2.86,3.53,5l-5.27,2.64c-10.07-4-11.27-7-4.14-10.56l13.06-6.53-5-2.5,5.65-2.83,5,2.51Z" transform="translate(-192.76 -335.99)"/><path d="M302.15,615.46c.43,0,.87,0,1.32,0a23.88,23.88,0,0,1,9.41,2.42c4.51,2.26,6,5.14,4.41,7.86l-7.73-1.09c1.15-1.49.43-2.88-2-4.1a9.91,9.91,0,0,0-4.32-1.09,5.66,5.66,0,0,0-2.53.54c-1.8.9-.44,2.5,1.57,4.33,3.27,2.55,7,6.14,1,9a16.48,16.48,0,0,1-7.44,1.62c-.57,0-1.16,0-1.76-.07a26.26,26.26,0,0,1-9.79-2.66c-5.38-2.7-7-5.88-4.73-8.74l8,1.06q-2.52,2.65,2.12,5a11.47,11.47,0,0,0,5,1.39,5.89,5.89,0,0,0,2.67-.6c1.74-.87.49-2.53-1.69-4.32-3-2.56-6.91-6.12-1.09-8.93A16.75,16.75,0,0,1,302.15,615.46Z" transform="translate(-192.76 -335.99)"/><path d="M290.35,607.37l5.88,2.93L269,623.9,263.16,621l3.92-2c-.93.07-1.83.11-2.72.11a25.11,25.11,0,0,1-11.43-2.56c-3.76-1.88-5.55-4.14-5.44-6.86s2.23-5.08,6.2-7.07a32,32,0,0,1,14.14-3.1h.49a29.25,29.25,0,0,1,13.23,2.72c4.13,2.07,5.76,4.41,4.94,7Zm-13.59,6.8c2.5-1.26,3.75-2.69,3.75-4.33s-1.19-3.1-3.65-4.32a18.56,18.56,0,0,0-8.42-1.82h-.22a19.08,19.08,0,0,0-8.65,1.87c-2.5,1.25-3.76,2.69-3.81,4.35s1.25,3.08,3.7,4.3a19,19,0,0,0,8.59,1.85,19.63,19.63,0,0,0,8.71-1.9" transform="translate(-192.76 -335.99)"/><g style="isolation:isolate"><path d="M359.34,631l2.88,1.44-25.34,12.67c-6.37,3.19-6.53,7.29.49,10.8a25.11,25.11,0,0,0,11.25,2.65A23.37,23.37,0,0,0,359,656.17l25.36-12.68,2.87,1.44L361.9,657.61a29.1,29.1,0,0,1-13.15,2.91h-.4a31.21,31.21,0,0,1-13.76-3.24c-4.19-2.09-6.36-4.38-6.48-6.88s1.86-4.74,5.88-6.75Z" transform="translate(-192.76 -335.99)"/><polygon points="203.41 313.4 206.29 314.85 168.21 333.89 165.33 332.44 203.41 313.4"/></g></svg>